<?xml version="1.0" encoding="utf-8"?>
<!-- Generator: Adobe Illustrator 19.1.0, SVG Export Plug-In . SVG Version: 6.00 Build 0)  -->
<svg version="1.1"
	 id="svg2" xmlns:dc="http://purl.org/dc/elements/1.1/" xmlns:cc="http://creativecommons.org/ns#" xmlns:rdf="http://www.w3.org/1999/02/22-rdf-syntax-ns#" xmlns:svg="http://www.w3.org/2000/svg" xmlns:sodipodi="http://sodipodi.sourceforge.net/DTD/sodipodi-0.dtd" xmlns:inkscape="http://www.inkscape.org/namespaces/inkscape" sodipodi:docname="Upright urban bicyclist.svg" inkscape:version="0.48.2 r9819"
	 xmlns="http://www.w3.org/2000/svg" xmlns:xlink="http://www.w3.org/1999/xlink" x="0px" y="0px" viewBox="-19 134.7 572.3 525.3"
	 style="enable-background:new -19 134.7 572.3 525.3;" xml:space="preserve">
<style type="text/css">
	.st0{fill:#FD282F;stroke:#000000;stroke-linecap:round;stroke-linejoin:round;}
	.st1{fill:#FD282F;stroke:#000000;}
</style>
<sodipodi:namedview  fit-margin-left="1" fit-margin-top="1" showgrid="false" inkscape:cy="185.7936" inkscape:cx="438.50082" inkscape:zoom="1" borderopacity="1.0" bordercolor="#666666" pagecolor="#ffffff" id="base" inkscape:window-maximized="1" inkscape:window-y="-8" inkscape:window-x="1358" inkscape:window-height="1028" inkscape:window-width="1680" fit-margin-bottom="1" inkscape:current-layer="layer1" inkscape:document-units="px" fit-margin-right="1" inkscape:pageshadow="2" inkscape:pageopacity="0.0">
	</sodipodi:namedview>
<g id="layer1" transform="translate(-109.90625,-237.68242)" inkscape:label="Layer 1" inkscape:groupmode="layer">
	<path id="path2998" inkscape:connector-curvature="0" class="st0" d="M211,659c-65.5,0-118.6,53.1-118.6,118.6
		S145.5,896.2,211,896.2s118.6-53.1,118.6-118.6S276.5,659,211,659z M211,684.7c51.3,0,92.9,41.6,92.9,92.9s-41.6,92.9-92.9,92.9
		s-92.9-41.6-92.9-92.9C118.1,726.3,159.7,684.7,211,684.7z"/>
	<path id="path2998-7" inkscape:connector-curvature="0" class="st0" d="M543.1,659c-65.5,0-118.6,53.1-118.6,118.6
		s53.1,118.6,118.6,118.6s118.6-53.1,118.6-118.6S608.6,659,543.1,659z M543.1,684.7c51.3,0,92.9,41.6,92.9,92.9
		s-41.6,92.9-92.9,92.9s-92.9-41.6-92.9-92.9S491.8,684.7,543.1,684.7z"/>
	<path sodipodi:nodetypes="sssscccscccscsssccccssssscccsssccccscsscc" inkscape:connector-curvature="0" class="st1" d="M295,744
		l33.8-17.8c14.6-7.6,33.7-25.4,32.6-26.4c-0.8-0.8-97.1-60.1-103.2-63.5c-6.9-3.9-11.3-8.7-14.7-16.1c-2.6-68.4,0.1,0.1-2.6-68.1
		c-0.5-53.7-1.7-48.7,3.3-69.2c5.6-11.3,15.1-17.8,27.6-18.5c8.3-0.5,16,1.9,22.8,7.1c66.5,72.2-0.1-0.1,66.4,72.1
		c85.6,16.2-0.2,0.2,85.7,16c3.9,1,8.6,7.9,10.3,12.2c38.4,96.4,0-0.2,38.1,96.4c10.4,15.1,23.8,48.2,39.6,74.7
		c14.9,25,23.2,23.4,25.5,35.5c1.3,6.7-11,16.1-18.9,12c-9-4.6-49.1-56.9-77.2-121.9c-7.3-14.6-12.1-29.6-19.1-44.3
		c-8.2,19-19.1,39.3-29.2,53.9l-8.6,12.3l-3.3,17.5c-1.8,9.6-8.1,43.4-13.9,75c-7.5,40.9-11.1,58.2-12.4,60
		c-4,5.5-14.2,4.5-15.7-1.6c-0.4-1.5,0.3-26.3,1.4-55.2s1.9-52.7,1.7-52.9s-4.1,2.5-8.7,6c-9.8,7.3-19.4,13.4-29.6,20
		c-43.8,28-104.5,41-125.3,32.7c-10.5-4.2-14.9-26.4,5.2-26.6C240.9,765,262.3,761.2,295,744z M422.3,608.1
		c4.4-13.1,8.4-29.5,7.4-30.5c-74.2-0.3,0.1,0-74.2-0.4c-47.8-32.6,0,0.1-47.5-33.1c-0.3,0-0.5,11.1-0.5,24.8v24.8l28.7,24.5
		c15.8,13.5,34.8,29.8,42.2,36.2s13.6,11.7,13.7,11.8C403.8,649,415.3,628.2,422.3,608.1L422.3,608.1z"/>
	
		<path id="path3830" sodipodi:ry="41.668793" sodipodi:rx="41.668793" sodipodi:cy="281.36325" sodipodi:cx="275.01404" sodipodi:type="arc" class="st0" d="
		M320.4,415.5c0,23-18.7,41.7-41.7,41.7s-41.7-18.7-41.7-41.7s18.7-41.7,41.7-41.7S320.4,392.5,320.4,415.5z"/>
	<path id="path3816" sodipodi:nodetypes="scccssssccs" inkscape:connector-curvature="0" class="st1" d="M510.8,642.4
		c-1.9-1-4.2-2.9-5.2-4.2c-2-2.8-16.9-60.6-16.9-65.5c0-1.7,0.9-4.5,2-6.2c3.9-6.3,3.6-6.3,49.8-6.3c38.6,0,42.1,0.1,45.2,1.8
		c3.5,1.9,7.1,7.2,7.1,10.6c0,4.2-11.3,61.2-12.7,64.3c-0.9,2-3.1,4.1-5.4,5.2c-3.5,1.8-6,2-32.1,1.9
		C517.6,644.1,513.8,643.9,510.8,642.4z"/>
</g>
</svg>
